<?xml version="1.0" encoding="utf-8"?>
<!-- Generator: Adobe Illustrator 27.3.1, SVG Export Plug-In . SVG Version: 6.00 Build 0)  -->
<svg version="1.1" id="Layer_1" xmlns="http://www.w3.org/2000/svg" xmlns:xlink="http://www.w3.org/1999/xlink" x="0px" y="0px"
	 viewBox="0 0 186.8 187.8" style="enable-background:new 0 0 186.8 187.8;" xml:space="preserve">
<style type="text/css">
	.st0{clip-path:url(#SVGID_00000139253513685700176570000009102119643256610435_);}
	.st1{fill:#2E2D7E;}
	.st2{fill:#1D1D1C;}
	.st3{fill:#E30A18;}
</style>
<g id="Elira_Logo">
	<g id="Logo">
		<g>
			<g>
				<g>
					<defs>
						<rect id="SVGID_1_" width="186.8" height="186.8"/>
					</defs>
					<clipPath id="SVGID_00000138568185312045438740000017349309183055817655_">
						<use xlink:href="#SVGID_1_"  style="overflow:visible;"/>
					</clipPath>
					<g style="clip-path:url(#SVGID_00000138568185312045438740000017349309183055817655_);">
						<path class="st1" d="M59.6,74.7c6.3-19.4,20.9-33.8,38.7-40.5c-24.7,2.5-46.7,19.2-54.9,44.3c-11,34,7.5,70.4,41.5,81.5
							c14.5,4.7,29.5,4,42.8-1c-8.7,0.9-17.7,0.1-26.6-2.8C67.1,145.1,48.6,108.6,59.6,74.7"/>
						<path class="st2" d="M88.8,74.9c41.5,13.5,83.1-0.1,92.9-30.2c2.2-6.9,2.6-14,1.4-21c-0.2,0.7-0.4,1.4-0.6,2.1
							c-7.4,22.6-40.8,32-74.8,21c-6.3-2-12.1-4.6-17.4-7.7c-10.2,5.8-18.8,14.4-24.6,25.2C72.6,68.5,80.4,72.1,88.8,74.9"/>
						<path class="st2" d="M152.8,83.8c-17.9,15.4-48.6,20.2-79.3,10.2c-5.4-1.8-10.5-3.9-15.3-6.3c-1,8.8-0.2,17.4,2.2,25.6
							C101.5,126.6,142.6,113.4,152.8,83.8"/>
						<path class="st3" d="M49.3,26.4c-5.5-1.8-11.2-1.2-16,1.1c0,0,0.1-0.1,0.1-0.1c-0.1-0.1-8.7,2.6-13.9,10.5c-2,3-2,4.4-4.7,7.7
							c-3.1,3.9-4.4,3.4-7.2,7c-3.5,4.4-4.9,9.6-4.7,9.7c0.1,0,0.4-0.4,0.9-1.1c2.2-2.7,4.6-4.2,5.7-4.8c1.2-0.7,3-1.6,5.2-2.2
							c2-0.5,3.6-0.7,5-0.8c1.2-0.1,2.1-0.1,2.9-0.1c1.5,0.2,2.9,0.4,4.4,0.9c2.9,0.9,5.2,2.5,5.5,2.7c4.7,3.2,7,8,7.4,8.8
							c2.5,5.3,2.2,10.2,2,12.3c0.4-1.3,1-2.8,1.5-4.3c0.9-2.1,1.8-4,2.7-5.7c0.5-1,1.2-2.2,2-3.5c0.6-1,1.6-2.7,3.2-4.8
							c0.8-1.1,2.7-3.6,5.5-6.5c0.4-0.5,2.3-2.4,5-4.7c3-2.5,5.4-4.1,6-4.5c1.9-1.2,3.4-2.1,4.4-2.7c1.8-1,3.5-1.8,4.9-2.4
							c1.6-0.7,3.3-1.3,4.9-2L49.3,26.4L49.3,26.4z"/>
					</g>
				</g>
			</g>
		</g>
	</g>
</g>
</svg>
